<svg width="16" height="16" viewBox="0 0 16 16" fill="none" xmlns="http://www.w3.org/2000/svg">
<path d="M0 0H16V16H0V0Z" fill="#F96263"/>
<path d="M8.5625 12L7.49609 9.27539H4.0625L3.00781 12H2L5.38672 3.39844H6.22461L9.59375 12H8.5625ZM7.18555 8.37891L6.18945 5.72461C6.06055 5.38867 5.92773 4.97656 5.79102 4.48828C5.70508 4.86328 5.58203 5.27539 5.42188 5.72461L4.41406 8.37891H7.18555Z" fill="white"/>
<path d="M10.4834 14.2559C10.1163 14.2559 9.82719 14.2031 9.61625 14.0977V13.248C9.89359 13.3262 10.1827 13.3652 10.4834 13.3652C10.8702 13.3652 11.1631 13.248 11.3623 13.0137C11.5655 12.7793 11.667 12.4414 11.667 12V3.43359H12.6631V11.918C12.6631 12.6602 12.4756 13.2344 12.1006 13.6406C11.7256 14.0508 11.1866 14.2559 10.4834 14.2559Z" fill="white"/>
</svg>
